<svg xmlns="http://www.w3.org/2000/svg" xmlns:xlink="http://www.w3.org/1999/xlink" width="500" zoomAndPan="magnify" viewBox="0 0 375 374.999991" height="500" preserveAspectRatio="xMidYMid meet" version="1.0"><defs><g/><clipPath id="17dd84136f"><path d="M 152.117188 169.476562 L 222.617188 169.476562 L 222.617188 205.394531 L 152.117188 205.394531 Z M 152.117188 169.476562 " clip-rule="nonzero"/></clipPath></defs><g clip-path="url(#17dd84136f)"><path stroke-linecap="butt" transform="matrix(0.75, 0, 0, 0.75, 152.118628, 169.478134)" fill="none" stroke-linejoin="miter" d="M -0.00192081 -0.00209596 L 94.341841 -0.00209596 L 94.341841 47.888535 L -0.00192081 47.888535 Z M -0.00192081 -0.00209596 " stroke="#000000" stroke-width="6" stroke-opacity="1" stroke-miterlimit="4"/></g><g fill="#000000" fill-opacity="1"><g transform="translate(158.185849, 197.188581)"><g><path d="M 0.515625 0 L 9.265625 -21.28125 L 11.765625 -21.28125 L 20.515625 0 L 17.6875 0 L 15.6875 -4.828125 L 5.3125 -4.828125 L 3.375 0 Z M 6.359375 -7.328125 L 14.671875 -7.328125 L 10.515625 -17.53125 Z M 6.359375 -7.328125 "/></g></g></g><g fill="#000000" fill-opacity="1"><g transform="translate(181.52353, 197.188581)"><g><path d="M 3.734375 4.140625 L 3.734375 -24.3125 L 6.140625 -24.3125 L 6.140625 4.140625 Z M 3.734375 4.140625 "/></g></g></g><g fill="#000000" fill-opacity="1"><g transform="translate(193.717097, 197.188581)"><g><path d="M 15.71875 0 L 15.71875 -8.5625 L 7.390625 -8.5625 L 7.390625 0 L 2.546875 0 L 2.546875 -21.28125 L 7.390625 -21.28125 L 7.390625 -13.09375 L 15.71875 -13.09375 L 15.71875 -21.28125 L 20.546875 -21.28125 L 20.546875 0 Z M 15.71875 0 "/></g></g></g></svg>