<svg xmlns="http://www.w3.org/2000/svg" xmlns:xlink="http://www.w3.org/1999/xlink" width="500" zoomAndPan="magnify" viewBox="0 0 375 374.999991" height="500" preserveAspectRatio="xMidYMid meet" version="1.0"><defs><g/><clipPath id="7bd1c84f23"><path d="M 152.125 152.363281 L 222.617188 152.363281 L 222.617188 188.363281 L 152.125 188.363281 Z M 152.125 152.363281 " clip-rule="nonzero"/></clipPath></defs><g clip-path="url(#7bd1c84f23)"><path stroke-linecap="butt" transform="matrix(0.75, 0, 0, 0.75, 152.124151, 152.362372)" fill="none" stroke-linejoin="miter" d="M 0.00113265 0.00121181 L 94.329264 0.00121181 L 94.329264 48.04809 L 0.00113265 48.04809 Z M 0.00113265 0.00121181 " stroke="#ffffff" stroke-width="6" stroke-opacity="1" stroke-miterlimit="4"/></g><g fill="#ffffff" fill-opacity="1"><g transform="translate(160.303119, 179.791672)"><g><path d="M 0.484375 0 L 8.59375 -19.734375 L 10.90625 -19.734375 L 19.03125 0 L 16.40625 0 L 14.546875 -4.484375 L 4.9375 -4.484375 L 3.125 0 Z M 5.890625 -6.796875 L 13.609375 -6.796875 L 9.75 -16.265625 Z M 5.890625 -6.796875 "/></g></g></g><g fill="#ffffff" fill-opacity="1"><g transform="translate(181.952635, 179.791672)"><g><path d="M 3.46875 3.828125 L 3.46875 -22.546875 L 5.6875 -22.546875 L 5.6875 3.828125 Z M 3.46875 3.828125 "/></g></g></g><g fill="#ffffff" fill-opacity="1"><g transform="translate(193.263313, 179.791672)"><g><path d="M 14.578125 0 L 14.578125 -7.953125 L 6.84375 -7.953125 L 6.84375 0 L 2.375 0 L 2.375 -19.734375 L 6.84375 -19.734375 L 6.84375 -12.15625 L 14.578125 -12.15625 L 14.578125 -19.734375 L 19.0625 -19.734375 L 19.0625 0 Z M 14.578125 0 "/></g></g></g></svg>