<svg xmlns="http://www.w3.org/2000/svg" xmlns:xlink="http://www.w3.org/1999/xlink" width="500" zoomAndPan="magnify" viewBox="0 0 375 374.999991" height="500" preserveAspectRatio="xMidYMid meet" version="1.0"><defs><g/><clipPath id="0ca8e299d0"><path d="M 72.617188 162.898438 L 302.375 162.898438 L 302.375 212.085938 L 72.617188 212.085938 Z M 72.617188 162.898438 " clip-rule="nonzero"/></clipPath><clipPath id="200d556c59"><path d="M 80.300781 169.585938 L 237.542969 169.585938 L 237.542969 205.414062 L 80.300781 205.414062 Z M 80.300781 169.585938 " clip-rule="nonzero"/></clipPath><clipPath id="18fa748f06"><path d="M 239.457031 169.585938 L 296.382812 169.585938 L 296.382812 205.414062 L 239.457031 205.414062 Z M 239.457031 169.585938 " clip-rule="nonzero"/></clipPath></defs><g clip-path="url(#0ca8e299d0)"><path stroke-linecap="butt" transform="matrix(0.966566, 0, 0, 0.966566, 72.618758, 162.898319)" fill="none" stroke-linejoin="miter" d="M -0.00162496 0.000122699 L 237.703542 0.000122699 L 237.703542 50.889025 L -0.00162496 50.889025 Z M -0.00162496 0.000122699 " stroke="#000000" stroke-width="4.655655" stroke-opacity="1" stroke-miterlimit="4"/></g><g clip-path="url(#200d556c59)"><path fill="#000000" d="M 80.300781 169.585938 L 237.601562 169.585938 L 237.601562 205.414062 L 80.300781 205.414062 Z M 80.300781 169.585938 " fill-opacity="1" fill-rule="nonzero"/></g><g fill="#ffffff" fill-opacity="1"><g transform="translate(87.77504, 195.232523)"><g><path d="M 0.390625 0 L 6.921875 -15.90625 L 8.796875 -15.90625 L 15.328125 0 L 13.21875 0 L 11.71875 -3.609375 L 3.96875 -3.609375 L 2.515625 0 Z M 4.75 -5.46875 L 10.96875 -5.46875 L 7.859375 -13.109375 Z M 4.75 -5.46875 "/></g></g></g><g fill="#ffffff" fill-opacity="1"><g transform="translate(105.219873, 195.232523)"><g><path d="M 8.265625 0.265625 C 6.347656 0.265625 4.847656 -0.328125 3.765625 -1.515625 C 2.679688 -2.710938 2.140625 -4.363281 2.140625 -6.46875 L 2.140625 -15.90625 L 4.109375 -15.90625 L 4.109375 -6.609375 C 4.109375 -4.992188 4.460938 -3.769531 5.171875 -2.9375 C 5.890625 -2.101562 6.921875 -1.6875 8.265625 -1.6875 C 11.035156 -1.6875 12.421875 -3.328125 12.421875 -6.609375 L 12.421875 -15.90625 L 14.421875 -15.90625 L 14.421875 -6.46875 C 14.421875 -4.363281 13.875 -2.710938 12.78125 -1.515625 C 11.695312 -0.328125 10.191406 0.265625 8.265625 0.265625 Z M 8.265625 0.265625 "/></g></g></g><g fill="#ffffff" fill-opacity="1"><g transform="translate(123.505127, 195.232523)"><g><path d="M 6.15625 0 L 6.15625 -14 L 0.765625 -14 L 0.765625 -15.90625 L 13.515625 -15.90625 L 13.515625 -14 L 8.15625 -14 L 8.15625 0 Z M 6.15625 0 "/></g></g></g><g fill="#ffffff" fill-opacity="1"><g transform="translate(139.541672, 195.232523)"><g><path d="M 9.546875 0.296875 C 7.941406 0.296875 6.515625 -0.0507812 5.265625 -0.75 C 4.023438 -1.457031 3.054688 -2.429688 2.359375 -3.671875 C 1.660156 -4.921875 1.3125 -6.347656 1.3125 -7.953125 C 1.3125 -9.566406 1.660156 -10.988281 2.359375 -12.21875 C 3.054688 -13.457031 4.023438 -14.429688 5.265625 -15.140625 C 6.515625 -15.847656 7.941406 -16.203125 9.546875 -16.203125 C 11.160156 -16.203125 12.582031 -15.847656 13.8125 -15.140625 C 15.050781 -14.429688 16.019531 -13.457031 16.71875 -12.21875 C 17.425781 -10.988281 17.78125 -9.566406 17.78125 -7.953125 C 17.78125 -6.347656 17.425781 -4.921875 16.71875 -3.671875 C 16.019531 -2.429688 15.050781 -1.457031 13.8125 -0.75 C 12.582031 -0.0507812 11.160156 0.296875 9.546875 0.296875 Z M 3.359375 -7.953125 C 3.359375 -6.722656 3.617188 -5.640625 4.140625 -4.703125 C 4.671875 -3.765625 5.398438 -3.03125 6.328125 -2.5 C 7.253906 -1.96875 8.328125 -1.703125 9.546875 -1.703125 C 10.765625 -1.703125 11.835938 -1.96875 12.765625 -2.5 C 13.691406 -3.03125 14.414062 -3.765625 14.9375 -4.703125 C 15.457031 -5.640625 15.71875 -6.722656 15.71875 -7.953125 C 15.71875 -9.191406 15.457031 -10.273438 14.9375 -11.203125 C 14.414062 -12.140625 13.691406 -12.875 12.765625 -13.40625 C 11.835938 -13.9375 10.765625 -14.203125 9.546875 -14.203125 C 8.328125 -14.203125 7.253906 -13.9375 6.328125 -13.40625 C 5.398438 -12.875 4.671875 -12.140625 4.140625 -11.203125 C 3.617188 -10.273438 3.359375 -9.191406 3.359375 -7.953125 Z M 3.359375 -7.953125 "/></g></g></g><g fill="#ffffff" fill-opacity="1"><g transform="translate(160.34822, 195.232523)"><g><path d="M 2.3125 0 L 2.3125 -15.90625 L 4.1875 -15.90625 L 10.421875 -6.46875 L 16.625 -15.90625 L 18.5 -15.90625 L 18.5 0 L 16.5 0 L 16.5 -12.15625 L 11.21875 -4.21875 L 9.59375 -4.21875 L 4.3125 -12.171875 L 4.3125 0 Z M 2.3125 0 "/></g></g></g><g fill="#ffffff" fill-opacity="1"><g transform="translate(182.881047, 195.232523)"><g><path d="M 0.390625 0 L 6.921875 -15.90625 L 8.796875 -15.90625 L 15.328125 0 L 13.21875 0 L 11.71875 -3.609375 L 3.96875 -3.609375 L 2.515625 0 Z M 4.75 -5.46875 L 10.96875 -5.46875 L 7.859375 -13.109375 Z M 4.75 -5.46875 "/></g></g></g><g fill="#ffffff" fill-opacity="1"><g transform="translate(200.325876, 195.232523)"><g><path d="M 6.15625 0 L 6.15625 -14 L 0.765625 -14 L 0.765625 -15.90625 L 13.515625 -15.90625 L 13.515625 -14 L 8.15625 -14 L 8.15625 0 Z M 6.15625 0 "/></g></g></g><g fill="#ffffff" fill-opacity="1"><g transform="translate(216.362418, 195.232523)"><g><path d="M 2.3125 0 L 2.3125 -15.90625 L 11.96875 -15.90625 L 11.96875 -14.046875 L 4.3125 -14.046875 L 4.3125 -9.015625 L 11.40625 -9.015625 L 11.40625 -7.171875 L 4.3125 -7.171875 L 4.3125 -1.859375 L 12.21875 -1.859375 L 12.21875 0 Z M 2.3125 0 "/></g></g></g><g clip-path="url(#18fa748f06)"><path fill="#ffffff" d="M 239.457031 169.585938 L 296.414062 169.585938 L 296.414062 205.414062 L 239.457031 205.414062 Z M 239.457031 169.585938 " fill-opacity="1" fill-rule="nonzero"/></g><g fill="#000000" fill-opacity="1"><g transform="translate(242.103004, 195.232523)"><g><path d="M 11.75 0 L 11.75 -6.40625 L 5.515625 -6.40625 L 5.515625 0 L 1.90625 0 L 1.90625 -15.90625 L 5.515625 -15.90625 L 5.515625 -9.796875 L 11.75 -9.796875 L 11.75 -15.90625 L 15.359375 -15.90625 L 15.359375 0 Z M 11.75 0 "/></g></g></g><g fill="#000000" fill-opacity="1"><g transform="translate(260.319997, 195.232523)"><g><path d="M 8.40625 0.3125 C 7.03125 0.3125 5.84375 0.0351562 4.84375 -0.515625 C 3.851562 -1.066406 3.085938 -1.851562 2.546875 -2.875 C 2.015625 -3.894531 1.75 -5.117188 1.75 -6.546875 L 1.75 -15.90625 L 5.359375 -15.90625 L 5.359375 -6.796875 C 5.359375 -4.335938 6.375 -3.109375 8.40625 -3.109375 C 10.4375 -3.109375 11.453125 -4.335938 11.453125 -6.796875 L 11.453125 -15.90625 L 15.0625 -15.90625 L 15.0625 -6.546875 C 15.0625 -5.117188 14.789062 -3.894531 14.25 -2.875 C 13.71875 -1.851562 12.953125 -1.066406 11.953125 -0.515625 C 10.960938 0.0351562 9.78125 0.3125 8.40625 0.3125 Z M 8.40625 0.3125 "/></g></g></g><g fill="#000000" fill-opacity="1"><g transform="translate(278.082704, 195.232523)"><g><path d="M 1.90625 0 L 1.90625 -15.90625 L 9.015625 -15.90625 C 10.640625 -15.90625 11.925781 -15.515625 12.875 -14.734375 C 13.832031 -13.960938 14.3125 -12.925781 14.3125 -11.625 C 14.3125 -10.882812 14.144531 -10.210938 13.8125 -9.609375 C 13.476562 -9.003906 13.007812 -8.523438 12.40625 -8.171875 C 13.164062 -7.835938 13.753906 -7.34375 14.171875 -6.6875 C 14.585938 -6.039062 14.796875 -5.296875 14.796875 -4.453125 C 14.796875 -3.554688 14.566406 -2.773438 14.109375 -2.109375 C 13.648438 -1.441406 13.015625 -0.921875 12.203125 -0.546875 C 11.398438 -0.179688 10.457031 0 9.375 0 Z M 5.46875 -2.859375 L 8.84375 -2.859375 C 9.550781 -2.859375 10.101562 -3.023438 10.5 -3.359375 C 10.894531 -3.691406 11.09375 -4.160156 11.09375 -4.765625 C 11.09375 -5.367188 10.894531 -5.835938 10.5 -6.171875 C 10.101562 -6.503906 9.550781 -6.671875 8.84375 -6.671875 L 5.46875 -6.671875 Z M 5.46875 -9.421875 L 8.46875 -9.421875 C 9.164062 -9.421875 9.695312 -9.578125 10.0625 -9.890625 C 10.4375 -10.210938 10.625 -10.664062 10.625 -11.25 C 10.625 -11.820312 10.4375 -12.265625 10.0625 -12.578125 C 9.695312 -12.890625 9.164062 -13.046875 8.46875 -13.046875 L 5.46875 -13.046875 Z M 5.46875 -9.421875 "/></g></g></g></svg>