<svg xmlns="http://www.w3.org/2000/svg" xmlns:xlink="http://www.w3.org/1999/xlink" version="1.1" preserveAspectRatio="none" x="0px" y="0px" width="171" height="375" viewBox="0 0 171 375">
<defs>
<g id="Layer0_0_FILL">
<path fill="#000000" stroke="none" d=" M 157.55 107.9 Q 157.25 119.75 159.6 131.35 160.65 119.5 159.6 106.4 L 157.55 107.9 M 61.55 93.6 Q 58.5 83.1 62.45 69.3 L 61.85 68.75 Q 37.95 83.35 53.5 122.5 56.15 113 64.8 109.45 67.95 108.25 70.8 106.65 73.95 104.85 76.7 102.6 71.75 103.2 68.25 101.8 63.35 99.75 61.55 93.6 M 83.05 33.9 Q 91.7 28.7 94.05 28.4 97.55 27.95 101.9 32.5 102.65 33.2 103.35 34 103.4 34.05 103.45 34.15 108.65 40.35 112.7 50.9 L 112.75 50.95 Q 113.25 52.2 113.65 53.5 L 114.5 54.4 113.65 53.5 111.7 53.5 Q 109.8 66.15 104.8 73.6 99.8 81 92 86.1 94.55 102.15 107.8 106.3 L 124.95 109.45 Q 127.85 108.3 129.95 106.45 135.4 101.5 134.2 92.25 133.65 88.15 132.3 85.7 131 83.2 128.85 80.75 126.7 78.25 125.05 75.85 123.4 73.45 119.8 68.1 116.2 62.7 115.25 55.4 115.2 55.2 115.2 55.05 115.15 54.35 115.1 53.5 115.1 50.35 116 45.8 116.85 41.6 116.85 38.1 116.85 37.65 116.85 37.25 116.8 36.1 116.65 35.05 116.45 33.6 116.2 32.3 115.35 31.9 111.6 28.7 107.95 25.55 103.75 23.25 99.7 21 91.9 18.6 84.15 16.3 79.7 19.5 75.3 22.7 71.05 24.15 66.75 25.45 65.15 25.45 63.8 27.75 62.6 30.55 L 61.85 32.6 Q 62.05 34.65 62.35 36.6 62.75 39.45 63.45 42.25 63.5 42.55 63.55 42.9 64.3 45.75 65.2 48.5 66.1 51.05 66.8 53.1 66.65 54.15 67.1 58.15 67.55 62.1 62.9 67.75 62.7 68.5 62.45 69.3 58.5 83.1 61.55 93.6 63.35 99.75 68.25 101.8 71.75 103.2 76.7 102.6 83.55 96.8 87.55 86.25 81.25 80.7 78.2 75.35 72.1 64.65 71.3 58.65 71.1 56.85 71 53.05 70.9 48.4 70.95 40.85 70.9 40.8 70.9 40.7 70.95 40.65 70.95 40.55 L 72.95 40.25 Q 76.9 37.5 83.05 33.9 M 95.25 11.15 Q 91.1 10.65 86.3 11.25 81.7 11.85 78 13.4 73.65 15.2 70.45 18.3 68.4 20.25 66.45 23.35 66.85 23.3 67.2 23.25 71.6 22.7 76 20.1 80.4 17.55 81.95 17.35 92.8 15.9 103.65 21.45 110.1 25.5 114.95 27.85 113.05 22.4 109.35 18.4 103.8 12.3 95.25 11.15 Z"/>
</g>

<g id="____0_Layer0_0_FILL">
<path fill="#000000" stroke="none" d=" M 0.25 0.6 Q 0 1.15 0 1.6 0 3.2 0.6 4 1 4.5 1.3 4.5 1.85 4.5 2.25 3.5 2.6 2.65 2.6 1.95 2.6 0.95 1.95 0.7 1.05 0.3 0.75 0.1 0.65 0.05 0.6 0 0.55 0.05 0.45 0.25 0.35 0.35 0.25 0.6 Z"/>
</g>

<path id="Layer0_0_1_STROKES" stroke="#000000" stroke-width="1.2" stroke-linejoin="round" stroke-linecap="round" fill="none" d=" M 159.6 106.4 Q 165.5 104.05 165.55 100.85 L 168.35 40.85 Q 166.4 36.1 163.75 33.65 L 165.65 44.05 M 162.4 44.45 L 159.5 31.35 Q 155.6 30.45 156.45 35.9 157.45 41.85 158.05 43.8 L 160.3 49.2 155.2 44.1 Q 149.15 41.5 152.2 47.4 L 163.1 55.85 163.8 57.65 159.55 92.15 Q 157.75 100.2 157.55 107.9 L 159.6 106.4 Q 160.65 119.5 159.6 131.35 147.8 136.2 137.9 138.6 124.2 141.85 114.25 140.3 107.9 158.7 105.85 171.1 103.65 184.9 106.9 191.1 106.95 191.2 106.95 191.3 107.6 192.45 108.45 193.35 127.9 248.5 140.35 307.45 149.15 289.35 146.9 278.75 144.65 268.15 137.4 238 130.15 207.85 133.9 199.15 137.65 190.45 135.25 168.3 132.85 146.1 134.9 140.9 M 163.75 33.65 Q 162.15 32.2 160.35 31.6 159.9 31.4 159.5 31.35 M 66.45 23.35 Q 68.4 20.25 70.45 18.3 73.65 15.2 78 13.4 81.7 11.85 86.3 11.25 91.1 10.65 95.25 11.15 103.8 12.3 109.35 18.4 113.05 22.4 114.95 27.85 115.75 29.95 116.2 32.3 116.45 33.6 116.65 35.05 116.8 36.1 116.85 37.25 116.85 37.65 116.85 38.1 116.85 41.6 116 45.8 115.1 50.35 115.1 53.5 115.15 54.35 115.2 55.05 115.2 55.2 115.25 55.4 116.2 62.7 119.8 68.1 123.4 73.45 125.05 75.85 126.7 78.25 128.85 80.75 131 83.2 132.3 85.7 133.65 88.15 134.2 92.25 135.4 101.5 129.95 106.45 127.85 108.3 124.95 109.45 132.2 108.6 140.3 104.7 140.9 102.45 140.9 97.9 140.9 57.15 118.9 30.9 M 74.95 50.2 Q 79.05 47.9 80.75 48.15 82.3 48.4 83.3 48.55 83.45 48.55 83.55 48.55 M 113.65 53.5 Q 113.25 52.2 112.75 50.95 L 112.7 50.9 Q 108.65 40.35 103.45 34.15 103.4 34.05 103.35 34 102.65 33.2 101.9 32.5 97.55 27.95 94.05 28.4 91.7 28.7 83.05 33.9 76.9 37.5 72.95 40.25 M 70.95 40.55 Q 70.95 40.65 70.9 40.7 70.9 40.8 70.95 40.85 70.9 48.4 71 53.05 71.1 56.85 71.3 58.65 72.1 64.65 78.2 75.35 81.25 80.7 87.55 86.25 89.9 86.95 92 86.1 99.8 81 104.8 73.6 109.8 66.15 111.7 53.5 111.7 52.45 111.7 51.35 M 62.6 30.55 Q 63.8 27.75 65.15 25.45 M 61.85 32.6 Q 62.05 34.65 62.35 36.6 62.75 39.45 63.45 42.25 63.5 42.55 63.55 42.9 64.3 45.75 65.2 48.5 66.1 51.05 66.8 53.1 66.65 54.15 67.1 58.15 67.55 62.1 62.9 67.75 62.7 68.5 62.45 69.3 58.5 83.1 61.55 93.6 63.35 99.75 68.25 101.8 71.75 103.2 76.7 102.6 83.55 96.8 87.55 86.25 M 65.15 25.45 Q 65.8 24.3 66.45 23.35 M 91.4 48.45 Q 94.35 45.45 101.95 47.5 M 114.5 54.4 L 113.65 53.5 M 88.6 51.05 Q 90.6013671875 58.6447265625 90.85 68.7 M 85.9 74.8 Q 90.8 78.95 96.7 74 M 61.85 68.75 Q 37.95 83.35 53.5 122.5 56.15 113 64.8 109.45 67.95 108.25 70.8 106.65 73.95 104.85 76.7 102.6 M 62.9 67.75 Q 62.4 68.25 61.85 68.75 M 63.9 23.9 Q 53.4 50.65 42.45 76.3 33.5 97.3 31.85 101.95 28.85 110.3 28.25 118.55 27.9 123.3 26.3 139.8 24.7 156.3 23.3 164.7 21.95 173.05 30.85 222.75 M 64.8 109.45 L 62.25 116.05 Q 57.2 126.8 59.2 139.2 92.05 126.05 114.25 140.3 114.4 137.6 114.45 134.75 114.85 119.65 107.8 106.3 103.85 110.6 97.05 112.45 93.35 113.45 90.1 113.65 85.55 114.25 78.35 113 71.95 111.8 64.8 109.45 Z M 53.5 122.5 L 33.95 180.25 Q 33.4 187.2 39 188 40 188.15 41.15 188.3 45.6 188.85 52.8 189.55 54.5 189.75 56.4 189.9 L 59.2 139.2 Q 65.05 161.25 66.15 176.25 66.65 183.35 66.1 188.9 99.5 196.25 106.9 191.1 M 108.45 193.35 Q 94.6 197.4 88.4 196.35 82.25 195.35 78 194.35 73.7 193.3 64.8 192.85 49.45 224.35 39.5 288.65 39.35 289.8 39.1 290.95 38 297.7 36.35 304.9 32.05 323.9 23.95 346 28.6 345.1 31.8 343.4 33.8 342.3 38.65 342.3 49 342.3 55.75 345.45 58.75 346.8 59.85 347.3 60.3 347.5 60.45 347.55 62.8 348.45 65.6 348.55 65.65 348.55 66.45 348.5 66.55 348.5 66.65 348.5 L 66.8 348.5 Q 66.85 348.5 66.95 348.5 L 68.9 348.4 Q 71.25 348.15 74.65 347.55 77.55 347 81.2 346.2 90.35 344.15 93.6 343.85 94.15 343.8 94.5 343.8 97.05 343.8 99.35 344 100.65 344.1 101.85 344.3 104.15 344.65 106.1 345.25 106.25 345.25 106.35 345.3 110.85 346.7 114.35 346.8 114.55 346.8 114.75 346.8 121.5 346.8 124.3 345.9 125.8 345.4 127.2 343.95 130 341.05 142.5 341.05 143.2 341.05 145 341.2 147.05 341.4 146.85 341.1 144.9 329.95 142.7 318.95 141.6 313.35 140.45 307.8 140.4 307.6 140.35 307.45 M 66.1 188.9 Q 65.6 190.95 64.8 192.85 M 157.55 107.9 Q 157.25 119.75 159.6 131.35 M 92 86.1 Q 94.55 102.15 107.8 106.3 L 124.95 109.45 M 140.3 104.7 Q 149.4 100.35 159.55 92.15 M 101.65 204.5 Q 103.3 208.45 105.8 216.2 M 41.15 188.3 L 39.65 221.7 Q 30.05 226.15 22.55 238.1 20.5 241.85 23.1 241.2 29.75 235.65 36.9 229.35 L 31.5 238.4 Q 32.6 240.8 33.9 239.6 L 42.7 223.8 47.4 192.4 M 74.65 347.55 L 74.65 359.6 74.65 367.1 43.85 367.1 Q 52.95 361.85 68.1 359.6 L 68.9 348.4 M 74.65 359.6 L 68.1 359.6 M 23.95 346 Q 23.9 346.25 23.8 346.5 M 122.55 303.1 Q 122.55 303.25 125.9 318.4 127.85 327.55 127.05 329.95 M 99.35 356.8 L 93.6 356.8 93.6 367.1 121.35 367.1 Q 118.1 362 104.85 360.35 L 99.35 356.8 99.35 344 M 93.6 343.85 L 93.6 356.8 M 67.1 209.9 Q 52.35 257 46.85 306.9 M 31.9 240.9 Q 27.1 296.9 33.9 298.9"/>
</defs>

<g transform="matrix( 1, 0, 0, 1, 0,0) ">
<use xlink:href="#Layer0_0_FILL"/>

<use xlink:href="#Layer0_0_1_STROKES"/>
</g>

<g transform="matrix( 0.99151611328125, 0.1295166015625, -0.12945556640625, 0.9915771484375, 95.7,47.05) ">
<g transform="matrix( 1, 0, 0, 1, 0,0) ">
<use xlink:href="#____0_Layer0_0_FILL"/>
</g>
</g>

<g transform="matrix( 0.99151611328125, 0.1295166015625, -0.12945556640625, 0.9915771484375, 78.55,48.55) ">
<g transform="matrix( 1, 0, 0, 1, 0,0) ">
<use xlink:href="#____0_Layer0_0_FILL"/>
</g>
</g>
</svg>