<svg xmlns="http://www.w3.org/2000/svg" xmlns:xlink="http://www.w3.org/1999/xlink" version="1.1" preserveAspectRatio="none" x="0px" y="0px" width="171" height="375" viewBox="0 0 171 375">
<defs>
<g id="Layer0_0_FILL">
<path fill="#000000" stroke="none" d=" M 107.95 42.5 Q 106.9 43 106.45 45.8 105.95 48.55 105.9 50.15 105.8 51.8 106.3 52.35 106.7 53 107.1 53.6 107.5 54.15 108.25 54.6 L 108.25 54.55 Q 108.7 53.2 109.1 51.75 110.45 47.4 111.3 43 111.45 42.1 111.6 41.2 109.9 41.75 107.9 41.95 108.95 41.9 107.95 42.5 M 84.9 35.3 Q 89.85 35.3 95.85 38.65 101.9 42.05 105.25 42.05 106.2 42.05 107.1 42 107.5 41.95 107.9 41.95 109.9 41.75 111.6 41.2 115.85 36.9 118.85 26.95 L 121.1 15.75 79.15 14.45 Q 74.7 15.6 71.3 17.8 61.45 24.25 61.6 28.1 61.7 31.85 62.3 33 62.8 34.05 65.4 38.7 66.2 40.2 65.85 47 L 65.85 47.05 Q 65.75 49.1 65.55 51.5 67.15 50.85 68.3 48 69.45 45.1 71.4 41.5 73.4 37.85 76.3 36.55 79.15 35.3 84.9 35.3 Z"/>
</g>

<path id="Layer0_0_1_STROKES" stroke="#000000" stroke-width="1.2" stroke-linejoin="round" stroke-linecap="round" fill="none" d=" M 90.6 49.85 Q 91.6 49.5 92.7 49.2 93.3 48.95 93.95 48.75 95.45 48.3 95.65 48.3 96.3 48.3 97.85 49.2 97.9 49.25 98 49.3 98.9 49.8 100.7 50.8 M 108.25 54.6 Q 107.5 54.15 107.1 53.6 106.7 53 106.3 52.35 105.8 51.8 105.9 50.15 105.95 48.55 106.45 45.8 106.9 43 107.95 42.5 108.95 41.9 107.9 41.95 107.5 41.95 107.1 42 106.2 42.05 105.25 42.05 101.9 42.05 95.85 38.65 89.85 35.3 84.9 35.3 79.15 35.3 76.3 36.55 73.4 37.85 71.4 41.5 69.45 45.1 68.3 48 67.15 50.85 65.55 51.5 65.55 51.55 65.55 51.6 L 65.55 51.65 Q 65.45 52.55 65.3 53.8 65.55 56.1 65.95 58.4 66.3 60.35 66.75 62.25 67.85 66.8 69.6 71.3 71.2 75.6 74.35 79.2 77.3 82.4 81.65 83.4 85.9 84.45 90 82.25 90.35 82.1 90.6 81.95 94.45 79.7 97.4 76.15 100.25 72.7 102.25 68.65 104.2 64.9 105.8 61.05 106.05 60.45 106.25 59.9 107.3 57.25 108.25 54.6 L 108.25 54.55 Q 108.7 53.2 109.1 51.75 110.45 47.4 111.3 43 111.45 42.1 111.6 41.2 109.9 41.75 107.9 41.95 M 111.6 41.2 Q 115.85 36.9 118.85 26.95 L 121.1 15.75 79.15 14.45 Q 74.7 15.6 71.3 17.8 61.45 24.25 61.6 28.1 61.7 31.85 62.3 33 62.8 34.05 65.4 38.7 66.2 40.2 65.85 47 L 65.85 47.05 Q 65.75 49.1 65.55 51.5 M 108.25 54.6 Q 108.8 53.85 109.45 53.35 109.95 53 110.15 53 110.65 53 110.75 53.15 110.85 53.25 110.7 54.8 110.55 56.4 108.75 58.3 L 106.25 59.9 M 85.75 49.5 Q 89 57.65 85.4 68.4 M 79.95 74.95 Q 83.8 77.15 88 75.35 89.05 74.95 90.1 74.5 M 97.3 97.4 L 94.3 93.3 90.9 93.05 90.8 93.2 85.05 100.35 89.75 129.45 97.5 97.75 97.3 97.4 128.45 98.9 Q 140.25 99.1 142.55 125.55 144.2 144.65 149.7 176.75 151.85 189.4 152.6 203.75 152.9 207.05 153.15 210.6 L 136.1 213.6 134.7 203.05 126.25 126.05 M 90.6 81.95 L 90.8 93.2 M 72.55 49.6 Q 77.25 47.65 78.85 47.8 80.45 47.95 83.6 48.8 L 83.6 49.85 M 21.75 24.65 Q 20.35 19.2 20.45 13.6 20.5 8.6 23.3 4.45 24.6 3.7 25.65 3.15 27.65 2.15 29.1 2.05 32 1.8 32.5 5.25 32.75 7.1 32.85 8.8 33.2 5.95 34.85 6.7 36.45 7.35 36.1 11.85 35.8 16.3 32.85 20.35 29.9 24.4 29.7 24.3 29.45 24.25 29.05 24.95 L 29.25 29.8 29.35 32.8 33.15 33.45 29.9 41.55 Q 27.85 55.2 28.55 68.55 28.75 76.3 29.25 80.55 29.25 83.4 29.3 83.7 L 37.8 91.75 Q 53.3 100.1 70.55 99.8 L 72.2 94.15 76.15 94.15 78.2 82.85 M 32.7 16.05 Q 32.25 16.2 31.9 16.5 L 31.95 16.35 Q 32.05 16.05 32.15 15.7 32.4 15.1 32.55 14 32.7 12.45 32.8 10.1 32.7 9.4 32.85 8.8 32.95 11.5 32.55 14 M 23.3 4.45 L 22.7 16.1 M 29.1 2.05 L 28.3 15.95 M 25.65 3.15 L 25.15 15.2 M 56.2 231.7 Q 56.2 231.6 56.25 231.4 57.95 223.95 59.4 216.5 59.6 214.5 59.8 212.5 59.85 211.7 59.9 210.9 60.6 204.2 56.75 159.15 L 49.05 120.9 Q 47.35 120.3 45.3 119 31.75 111.55 9.4 93.55 9.25 88.55 9.3 80.55 9.4 72.6 10 63.7 11.25 49.95 14.65 38.1 L 14.8 30.35 29.35 32.8 M 21.25 28.15 L 29.25 29.8 M 20.25 30.7 L 21.8 25.1 M 14.65 38.1 Q 24.85 38 29.9 41.55 M 23.8 87.25 L 28.2 84.65 M 65.55 51.6 Q 65.5 51.6 65.5 51.55 64.1 50.3 63.7 50.05 63.35 49.9 63.35 49.85 L 62.9 49.85 Q 62.4 51.85 62.4 53.1 62.4 54.9 63.2 56.3 63.7 57.1 64.9 58.6 M 85.05 100.35 L 76.45 94.15 76.15 94.15 M 64.45 135.7 L 69.25 135.05 75.1 126.55 80.5 134.2 85.55 133.95 M 69.25 135.05 L 80.5 134.2 M 70.55 99.8 L 79.45 110.35 89.75 129.45 Q 93.2 180.4 93.6 231.8 L 110.25 228.7 M 96.75 190.75 L 118.25 190.75 118.25 212.9 Q 100.7 216.1 96.75 190.75 Z M 66.75 191.1 L 64.4 212.95 Q 71.1 216.55 76.9 212.05 85.05 201.3 89.2 190.65 L 66.75 190.65 M 149.35 211.55 Q 149.45 212.15 150.05 214.6 150.4 216.05 150.35 216.55 M 140.85 213.8 Q 141 215.3 141.25 216.1 L 141.55 217.6 M 141.55 218.55 Q 141.5 218.8 141.4 219.15 140.85 220.6 140.35 222.85 139.8 225.45 139.8 226.5 139.8 227.75 142.3 232.4 142.75 232.4 143.15 232.05 143.45 231.9 143.85 231.65 M 124.45 120.6 L 122.7 215.1 126.3 229.9 Q 125.3 230.2 124.4 230.4 L 137.85 358.45 Q 142.9 361.65 149.1 363.95 152.45 365 154.9 365.85 167.1 370.2 158.9 371.05 155.05 371.5 149.35 371.6 144.1 371.7 136.7 371.25 129.3 370.75 126.3 370.1 125.15 371.45 124.8 371.6 118.1 373.9 112.3 371.8 L 112.3 359.35 109.75 359.5 92.75 236.45 M 124.35 229.9 L 124.4 230.4 Q 114.7 232.7 110.15 228.2 M 150.8 216.3 Q 157.4 234.75 153 237.3 148.5 239.8 146.4 239.1 144.35 238.35 144.25 229.6 144.2 226.7 143.85 224.4 M 134.7 203.05 Q 144.6 205.8 152.6 203.75 M 56.25 231.4 L 59.55 231.45 59.55 231.2 M 59.55 231.45 L 73.2 231.65 Q 77.5 231.85 79 229.45 L 93.6 231.8 M 37.7 368.1 Q 34.1 370.25 34.8 372.25 34.95 372.75 35.3 373.2 45.15 373.45 52.65 372.3 52.8 372.3 53 372.25 60.15 371.2 64.3 370.05 68.45 369 71.25 369.85 74.05 370.7 79.3 371.2 84.6 371.65 86.35 370.2 88.15 368.8 88.05 366.45 87.8 361.15 86.55 357.5 L 70.25 359 Q 49.95 367.6 37.7 368.1 40 366.7 42.9 365.8 51.35 363.1 59.3 360.1 L 59.55 231.45 M 59.3 360.1 L 70.25 359 M 92.45 237.45 L 86.9 357.45 86.55 357.5 M 112.3 359.35 L 123.3 358.95 137.85 358.45 M 154.9 365.85 L 123.3 358.95"/>

<path id="Symbol_1_0_Layer0_0_1_STROKES" stroke="#000000" stroke-width="1.2" stroke-linejoin="round" stroke-linecap="round" fill="none" d=" M 0.05 0.1 Q -0.1 0.6 0.15 1 0.3 1.3 0.55 1.35 0.55 1.5 0.7 1.85 0.9 2.25 1 2.3 1.35 1.9 1.35 1 L 1.25 0.1 0.3 0"/>
</defs>

<g transform="matrix( 1, 0, 0, 1, 0,0) ">
<use xlink:href="#Layer0_0_FILL"/>

<use xlink:href="#Layer0_0_1_STROKES"/>
</g>

<g transform="matrix( 1.00390625, 0, 0, 1.00390625, 77.15,49.75) ">
<g transform="matrix( 1, 0, 0, 1, 0,0) ">
<use xlink:href="#Symbol_1_0_Layer0_0_1_STROKES"/>
</g>
</g>

<g transform="matrix( 1.00390625, 0, 0, 1.00390625, 94.55,50.05) ">
<g transform="matrix( 1, 0, 0, 1, 0,0) ">
<use xlink:href="#Symbol_1_0_Layer0_0_1_STROKES"/>
</g>
</g>
</svg>