<svg xmlns="http://www.w3.org/2000/svg" xmlns:xlink="http://www.w3.org/1999/xlink" version="1.1" preserveAspectRatio="none" x="0px" y="0px" width="171" height="375" viewBox="0 0 171 375">
<defs>
<g id="Symbol_2_0_Layer0_0_FILL">
<path fill="#000000" stroke="none" d=" M 4.75 0 Q 2.8 0 1.4 1.4 0 2.8 0 4.75 L 0 18.25 Q 0 20.2 1.4 21.6 2.8 23 4.75 23 6.7 23 8.1 21.6 9.5 20.2 9.5 18.25 L 9.5 4.75 Q 9.5 2.8 8.1 1.4 6.7 0 4.75 0 Z"/>
</g>

<path id="Layer0_0_1_STROKES" stroke="#000000" stroke-width="1.2" stroke-linejoin="round" stroke-linecap="round" fill="none" d=" M 99.35 303.75 L 99.35 304.5 Q 100.5 304.05 101.35 303.75 103.4 302.95 103.75 302.95 105.5 303 107.6 303.55 108.9 304.1 110 304.55 114.2 306.3 115.05 306.65 119.7 308.45 124.15 310.3 127 311.85 128.1 312.25 129.2 312.65 131.65 308.9 129.65 299.15 129.1 289.3 127.95 271.65 128.05 254.2 128.2 237.1 129.05 220.05 129.1 218.8 129.2 217.5 129.8 205.05 130.35 192.5 130.55 186.75 130.8 180.95 131.3 166.45 131.85 152.05 132.05 146.8 132.2 141.55 132.5 132.8 132.8 124.1 133.3 110.1 133.85 96.2 134.5 81.6 135.4 66.95 136.15 54.25 131.75 42.55 125.15 24.85 110.3 12.95 104.05 7.9 96.15 6.15 76.4 1.55 60.1 14.25 58.9 15.2 57.8 16.15 44.75 27.55 41.4 45.05 38.5 60.3 38.55 75.95 38.6 93.25 38.75 110.7 38.9 128.9 39.75 147.05 40.65 166.8 42.05 186.5 43.05 200.2 43.95 213.9 44.8 227.5 45.45 241.2 46.05 254.65 46.45 268.15 46.6 272.15 46.65 276.15 46.95 288.35 46.85 300.55 46.3 302.05 46.5 304.7 46.7 307.35 47.2 309.05 49.1 305.45 52.9 303.3 54.05 302.6 55.4 302.05 56.55 301.6 57.8 301.3 61.6 300.3 66.35 300.35 66.85 300.35 67.4 300.45 69.95 300.85 73.1 303.1 73.3 303.25 73.5 303.4 74.5 304.1 75.55 305 80.4 309.15 83.75 309.6 84.1 309.65 84.45 309.65 86.55 309.65 94.8 306.3 97.15 305.35 98.9 304.65 99.15 304.55 99.35 304.5 L 99.35 364.3 Q 99.6 367.55 102.5 369.05 L 133.7 369.05 Q 133.8 364.2 112 360.25 107.5 359.9 108 355.55 L 108 304.55 M 79.75 309.6 L 79.75 364.8 Q 80.2 368.7 75.25 369.05 L 47.75 369.05 Q 45.05 368.85 47.75 366.85 52 364.05 57.8 362.05 62.6 360.35 68.5 359.15 70.95 359 71.5 354.05 L 71.5 303.4 M 54.55 298.05 L 54.55 282.05 M 119.5 305.05 L 119.5 282.55 M 105.55 300.55 L 105.55 252.55 M 84.55 306.05 L 84.55 270.55 M 64.55 297.55 L 64.55 258.55"/>
</defs>

<g transform="matrix( 1, 0, 0, 1, 0,0) ">
<use xlink:href="#Layer0_0_1_STROKES"/>
</g>

<g transform="matrix( 1, 0, 0, 1, 69.25,49.2) ">
<g transform="matrix( 1, 0, 0, 1, 0,0) ">
<use xlink:href="#Symbol_2_0_Layer0_0_FILL"/>
</g>
</g>

<g transform="matrix( 1, 0, 0, 1, 95.45,49.2) ">
<g transform="matrix( 1, 0, 0, 1, 0,0) ">
<use xlink:href="#Symbol_2_0_Layer0_0_FILL"/>
</g>
</g>
</svg>