<svg xmlns="http://www.w3.org/2000/svg" xmlns:xlink="http://www.w3.org/1999/xlink" version="1.1" preserveAspectRatio="none" x="0px" y="0px" width="171" height="375" viewBox="0 0 171 375">
<defs>
<g id="Layer0_0_FILL">
<path fill="#000000" stroke="none" d=" M 63.95 135.75 Q 54.9 114.95 54.25 107.65 L 49.15 106.4 Q 52.05 128.65 63.95 135.75 M 95.95 35.85 Q 95.95 35.9 99.6 37.3 103.2 38.65 102.15 41.7 101.05 44.7 101.2 45.55 103.5 47.5 102.8 49.85 L 102.8 51.8 103.2 52.15 Q 102.5 52.3 102.6 52.75 102.65 53.25 101.85 53.95 101.9 56.9 101.7 60.3 101.55 62.75 101.3 65.4 101.3 65.55 101.3 65.75 101.1 67.9 100.9 69.85 99.7 71.9 98.3 73.9 95.4 77.9 93.45 79.6 91.5 81.25 91.1 81.7 91.25 88.8 95 92.45 L 96.1 92.8 98.45 95.3 Q 99.6 96.6 100.65 101.15 100.8 101.8 100.95 102.55 L 100.45 101.65 99.7 100.3 100.25 102.1 102.05 108.55 106.15 118.05 107.3 120.65 Q 111.8 125.55 111.95 124.15 112.05 122.75 114.95 119.05 117.6 116.6 119.05 110.45 118.9 102.95 120.8 97.6 122.45 99.75 123.85 101.95 L 124.15 101.75 Q 124.1 101.45 124 101.15 L 124.05 101.25 Q 123.25 98.9 122.25 97.3 120.1 93.35 115.85 87.2 109.15 77.55 109.15 73.5 109.15 73.1 109.8 70.5 110.4 67.9 113.4 56.3 116.4 44.7 116.35 41.45 116.2 38.2 114.95 30.5 113.65 22.75 104.9 14.3 96.15 5.8 81.75 8.8 67.3 11.75 61.7 21.75 56.7 30.75 56.7 42.25 56.7 44.4 58.1 47.65 L 58.1 47.7 Q 58.15 47.85 58.2 47.95 58.95 49.65 59.35 51.45 59.7 53.2 59.7 55 59.7 59.55 53.5 72.35 47.5 84.8 47.7 94.25 L 43.15 93.7 59.55 96 74.3 93.55 80.5 92.45 Q 83.9 88.7 84.15 81.8 81.75 81.1 80.25 79.45 77.95 77 76.05 74.15 76 74.05 75.95 73.95 L 75.9 73.95 Q 75.45 73.2 75 72.45 72.85 69.05 71.3 65.2 70.9 64.3 70.6 63.4 70.1 62.15 69.65 60.95 69.2 59.6 68.8 58.3 68.75 58.2 68.75 58.1 68.7 58 68.65 57.85 68.25 56.45 67.9 55 L 67.9 54.95 Q 67.85 54.85 67.85 54.8 67.85 54.75 67.85 54.7 67.7 54.2 67.6 53.75 67.35 52.55 67.15 51.3 67.1 51.05 67.05 50.75 67 50.4 66.95 50.05 L 66.95 50 Q 66.95 49.9 66.95 49.8 L 65.55 49.8 Q 63.85 46 65.55 43.55 L 66.25 43.55 Q 66.15 41.2 66.3 38.2 66.45 34.75 70.65 30.75 74.8 26.7 75.35 29.25 75.85 31.8 85.9 33.8 95.9 35.75 95.95 35.85 Z"/>
</g>

<g id="Symbol_2___0_Layer0_0_FILL">
<path fill="#000000" stroke="none" d=" M 1.05 0.55 Q 0.8146484375 0.76328125 0.55 1.05 0 1.65 0 1.75 0 2.4 0.5 3 0.95 3.5 1.25 3.5 L 1.3 3.5 Q 1.8091796875 3.4884765625 2 3.25 2.25 3 2.25 2.25 2.25 1.9134765625 2.15 1.55 L 1.05 1.55 1.05 0.55 M 1.75 0.55 Q 1.6580078125 0.3662109375 1.6 0.25 1.36171875 0.329296875 1.05 0.55 L 1.75 0.55 Z"/>
</g>

<path id="Layer0_0_1_STROKES" stroke="#000000" stroke-width="1.2" stroke-linejoin="round" stroke-linecap="round" fill="none" d=" M 101.2 45.55 Q 101.05 44.7 102.15 41.7 103.2 38.65 99.6 37.3 95.95 35.9 95.95 35.85 95.9 35.75 85.9 33.8 75.85 31.8 75.35 29.25 74.8 26.7 70.65 30.75 66.45 34.75 66.3 38.2 66.15 41.2 66.25 43.55 M 66.95 49.8 Q 66.95 49.9 66.95 50 L 66.95 50.05 Q 67 50.4 67.05 50.75 67.1 51.05 67.15 51.3 67.35 52.55 67.6 53.75 67.7 54.2 67.85 54.7 67.85 54.75 67.85 54.8 67.85 54.85 67.9 54.95 L 67.9 55 Q 68.25 56.45 68.65 57.85 68.7 58 68.75 58.1 68.75 58.2 68.8 58.3 69.2 59.6 69.65 60.95 70.1 62.15 70.6 63.4 70.9 64.3 71.3 65.2 72.85 69.05 75 72.45 75.45 73.2 75.9 73.95 L 75.95 73.95 Q 76 74.05 76.05 74.15 77.95 77 80.25 79.45 81.75 81.1 84.15 81.8 87.8 83 91.1 81.7 91.5 81.25 93.45 79.6 95.4 77.9 98.3 73.9 99.7 71.9 100.9 69.85 101.1 67.9 101.3 65.75 101.3 65.55 101.3 65.4 101.55 62.75 101.7 60.3 101.9 56.9 101.85 53.95 102.65 53.25 102.6 52.75 102.5 52.3 103.2 52.15 M 86.6 44.85 Q 89.9 40.4 94.05 42 95.45 42.5 96.9 43.65 M 47.7 94.25 Q 47.5 84.8 53.5 72.35 59.7 59.55 59.7 55 59.7 53.2 59.35 51.45 58.95 49.65 58.2 47.95 58.15 47.85 58.1 47.7 L 58.1 47.65 Q 56.7 44.4 56.7 42.25 56.7 30.75 61.7 21.75 67.3 11.75 81.75 8.8 96.15 5.8 104.9 14.3 113.65 22.75 114.95 30.5 116.2 38.2 116.35 41.45 116.4 44.7 113.4 56.3 110.4 67.9 109.8 70.5 109.15 73.1 109.15 73.5 109.15 77.55 115.85 87.2 120.1 93.35 122.25 97.3 M 124 101.15 Q 124.1 101.45 124.15 101.75 M 123.85 101.95 Q 129.05 110.3 131.45 121.85 133.8 133.4 135.6 140.9 137.35 148.35 137.9 152.9 138.55 156.5 136.55 159.2 128.85 168 123.75 173.75 122.25 175.3 121.05 176.6 L 126.05 186.9 104.85 206.95 102.6 203 Q 101.85 209.15 93.75 210.45 L 93.05 196.65 Q 92.85 196.4 92.75 196.15 92.7 195.7 92.85 195.3 93.1 194.6 94.3 193.8 93.6 192.5 93.25 191.8 93.15 191.65 93.15 191.5 M 97.45 53.45 L 97.45 54.35 M 95.4 51.1 L 95.4 51.7 M 91.8 53.2 Q 91.85 53.4 91.95 53.45 M 91.7 56.1 L 91.35 56.55 M 84.8 52.75 L 84.75 53.3 84.75 53.45 84.1 61.85 Q 84.4 63.6 85.4 63.9 85.65 64 86 63.95 86.35 63.9 86.7 63.75 87.25 63.55 87.9 63.55 M 89.35 53.7 L 89.35 54.4 M 81.55 71.05 Q 83.25 73.4 85.65 73.7 87 73.85 88.6 73.35 89.75 73 91.1 72.25 M 95 92.45 Q 91.25 88.8 91.1 81.7 M 80.5 92.45 Q 83.65 96.45 88 95.6 91.55 94.85 95 92.45 L 96.1 92.8 M 98.45 95.3 Q 99.6 96.6 100.65 101.15 100.8 101.8 100.95 102.55 M 120.8 97.6 Q 122.45 99.75 123.85 101.95 M 71.3 43.25 Q 74.1 41.35 76.05 41.35 78.05 41.35 79.7 42.9 81.25 44.45 81.4 44.45 M 49.15 106.4 L 7.1 97.6 Q 4.8 94.9 5.7 88.9 L 7.55 83.15 17.85 44.75 19.1 41.6 19.5 37.3 Q 18.7 34.35 20.55 28.7 22.25 23.2 27.6 21.05 27.75 20.95 27.95 20.9 30.25 20.05 31.45 20.6 33.1 21.45 32.45 25.2 32.05 26 31.45 27 29.3 30.6 29.3 32.65 29.85 32 30.45 31.45 32.9 29 36.45 28.95 33.9 32.6 32.8 33.45 31.7 34.3 28.8 38.9 M 19.5 37.3 L 28.2 39.5 25.05 45.65 24.25 48.15 14.8 89.8 10.85 92.6 M 25.05 45.65 L 19.1 41.6 M 24.25 48.15 L 17.85 44.75 M 31.45 20.6 L 26.6 30.95 M 27.6 21.05 L 23.35 29.95 M 78.05 55.75 L 78.05 56.25 M 78.3 52.25 L 78.45 52.9 M 74.85 53.95 Q 74.95 54.4 75.1 54.8 M 71.7 50.25 Q 71.9 50.15 72.05 50.05 M 43.15 93.7 L 59.55 96 74.3 93.55 80.5 92.45 Q 83.9 88.7 84.15 81.8 M 14.9 90.05 L 43.15 93.7 M 49.15 106.4 L 54.25 107.65 Q 54.9 114.95 63.95 135.75 66.45 145.35 69.4 156.3 72.3 167.25 72.3 177.9 72.3 186 70.35 193.8 68.55 201.1 64.8 207.65 L 77.2 210.7 91.45 214.2 Q 91.25 211.4 91.4 204.45 91.5 197.5 90.65 184.55 L 90.55 181.15 79.85 161.5 86.6 156.15 89.8 153.65 89.55 144.75 Q 65.8 124.15 59.55 96 M 49.15 106.4 Q 52.05 128.65 63.95 135.75 M 123.15 114.45 L 121.95 118.65 Q 124 132.55 126.05 139.8 127.95 146.55 128.2 152.85 128.2 153.35 128.2 153.8 L 132 153.8 M 100.45 101.65 L 100.65 101.15 M 82.9 103.55 Q 84 107.75 88.05 108.25 91.55 108.45 92 103.65 L 88 95.6 82.9 103.55 77.85 111.55 74.3 93.55 M 92 103.65 L 96 111.75 100.25 102.1 M 103.95 130.15 Q 103.7 130.85 103.5 131.5 103.1 132.5 102.95 133.2 102.7 134.2 102.7 135.2 103 135.2 104.15 135.7 105.25 136.2 106.7 136.2 109.6 136.2 110.4 134.2 110.85 133.05 110.7 130.2 110.4 130.2 109.5 129.7 108.65 129.2 107.2 129.2 105.55 129.2 104.4 129.85 104.2 129.95 103.95 130.15 Z M 88.05 108.25 L 89.55 144.75 Q 95.7 136.75 106.15 118.05 M 89.8 153.65 L 98.85 146.2 104.3 141.65 112.9 159.6 Q 111.6 137.8 121.95 118.65 M 128.2 153.8 L 117.45 169.1 Q 116.6 169.95 115.7 170.9 L 102.35 185.8 106.15 192.4 121.05 176.6 M 112.9 159.6 L 117.45 169.1 M 86.6 156.15 Q 87 158.3 89.45 157.7 91.9 157.1 100.3 149.55 101.1 147.05 98.85 146.2 M 100.35 187.15 Q 99.6 186.9 98.9 186.95 98.8 187 98.8 186.95 98 187 97.2 187.35 97 187.45 96.75 187.55 96.35 187.75 96 188.05 95.4 188.3 94.8 188.9 94.5 189.2 94.15 189.55 93.8 189.95 93.55 190.3 M 102.6 203 L 100.3 198.9 Q 99.3 199.3 98.5 199.55 98.1 199.7 97.85 199.7 95.6 200.15 95.65 198.65 95.65 198.45 95.7 198.2 95.35 198.1 95.05 197.95 93.6 197.3 93.05 196.65 M 98.05 190.6 L 96.55 191.95 Q 95.55 192.35 94.95 193 94.7 193.25 94.5 193.5 94.4 193.65 94.3 193.8 M 90.55 181.15 L 94.8 188.9 M 119.75 183.55 L 105.85 195.6 M 106.15 192.4 L 104.5 194.3 Q 104.1 198.5 100.3 198.9 M 102.35 185.8 L 100.6 187.85 104.5 194.3 M 106.6 156.45 L 90.5 168.15 M 108.4 160.95 L 93.25 172.85 M 104.65 152.6 L 88.85 164.35 M 112.6 170.05 L 98.5 182.15 M 110.65 165.5 L 95.65 177.7 M 73.25 195.2 L 87.75 196.15 Q 87.95 200.3 88.15 202.2 88.3 204.05 87.9 210.7 79.55 207.45 76.55 204.3 73.5 201.15 73.25 195.2 Z M 115.65 197.3 Q 118.2 201.45 120.75 203.45 120.65 204.35 120.8 204.45 120.85 204.5 120.85 204.55 120.95 204.6 121.1 204.7 134.95 220.35 137.5 248.6 138.85 263.7 143.35 288.3 143.6 289.55 143.85 290.8 145.95 299.7 147.5 305.55 149 311.4 150.4 317.6 151.8 323.75 138.1 322.8 126.4 320.55 120.55 321.2 118.45 321.45 115.55 322.15 L 117.3 348.05 118.4 356.8 Q 127 357.1 136.9 362.6 L 142.05 367.8 Q 143.65 370.95 137.8 369.6 L 119.8 368.1 119.8 370.05 112.05 370.05 112.05 360.65 113.3 356.05 107.85 324.85 M 85.7 214.25 Q 85.1 218.75 83.75 226.25 82.7 233.55 82.7 243.25 82.7 251.75 83.45 262 84.2 272.25 84.2 273.75 M 98.2 213.25 Q 99.8 213.6 101.95 238.2 104.1 262.8 106.15 286.75 M 91.45 214.2 L 121.1 204.7 M 111.15 210.75 Q 111.5 212.55 118.9 228.95 123.25 248.55 124.05 257.8 M 77.2 210.7 Q 68 231.7 66.7 261.8 M 115.55 322.15 Q 110.35 323.45 102.6 326.35 96.15 328.3 90.3 329.35 L 89.75 348.05 89 356.05 90.25 361.25 90.25 370.05 82.5 370.05 82.5 367.85 64.5 369.6 Q 58.65 370.95 60.25 367.8 62.35 364.65 65 362.9 75.3 357.1 83.9 356.8 L 82.65 330.4 Q 64.6 332 52.75 324.35 L 56 282.35 Q 52.55 227.9 64.8 207.65 M 90.3 329.35 Q 86.35 330.05 82.65 330.4 M 136.9 362.6 Q 121.7 364.3 112.05 360.65 M 65 362.9 Q 80.15 363.55 90.25 361.25 M 121.75 186.95 L 107.65 199.3"/>

<path id="Symbol_2___0_Layer0_0_1_STROKES" stroke="#000000" stroke-width="1.2" stroke-linejoin="round" stroke-linecap="round" fill="none" d=" M 1.6 0.25 Q 1.6580078125 0.3662109375 1.75 0.55 M 1.05 0.575 L 1.075 0.55 M 2.15 1.55 Q 2.25 1.9134765625 2.25 2.25 2.25 3 2 3.25 1.8091796875 3.4884765625 1.3 3.5 L 1.25 3.5 Q 0.95 3.5 0.5 3 0 2.4 0 1.75 0 1.65 0.55 1.05 0.8146484375 0.76328125 1.05 0.575 M 0.25 0.5 L 1.5 0 Q 1.5 0.05 1.6 0.25 1.36171875 0.329296875 1.075 0.55"/>
</defs>

<g transform="matrix( 1, 0, 0, 1, 0,0) ">
<use xlink:href="#Layer0_0_FILL"/>

<use xlink:href="#Layer0_0_1_STROKES"/>
</g>

<g transform="matrix( 0.95550537109375, 0, 0, 0.95550537109375, 74.95,42.45) ">
<g transform="matrix( 1, 0, 0, 1, 0,0) ">
<use xlink:href="#Symbol_2___0_Layer0_0_FILL"/>

<use xlink:href="#Symbol_2___0_Layer0_0_1_STROKES"/>
</g>
</g>

<g transform="matrix( 0.95550537109375, 0, 0, 0.95550537109375, 91.25,41.9) ">
<g transform="matrix( 1, 0, 0, 1, 0,0) ">
<use xlink:href="#Symbol_2___0_Layer0_0_FILL"/>

<use xlink:href="#Symbol_2___0_Layer0_0_1_STROKES"/>
</g>
</g>
</svg>